<svg width="526" height="58" viewBox="0 0 526 58" fill="none" xmlns="http://www.w3.org/2000/svg">
<path d="M0.13885 57V1.72727H20.3803C24.3027 1.72727 27.5503 2.375 30.1232 3.67045C32.6961 4.94792 34.6213 6.68418 35.8988 8.87926C37.1763 11.0563 37.815 13.5123 37.815 16.2472C37.815 18.5502 37.3922 20.4934 36.5465 22.0767C35.7009 23.642 34.5674 24.9015 33.146 25.8551C31.7425 26.7907 30.1952 27.4744 28.5039 27.9062V28.446C30.3391 28.536 32.1294 29.1297 33.8746 30.2273C35.6379 31.3068 37.0953 32.8452 38.2468 34.8423C39.3983 36.8395 39.9741 39.2685 39.9741 42.1293C39.9741 44.9541 39.3084 47.491 37.9769 49.7401C36.6635 51.9711 34.6303 53.7434 31.8775 55.0568C29.1246 56.3523 25.6071 57 21.3249 57H0.13885ZM8.47834 49.848H20.5153C24.5096 49.848 27.3704 49.0743 29.0977 47.527C30.8249 45.9796 31.6886 44.0455 31.6886 41.7244C31.6886 39.9792 31.2478 38.3778 30.3661 36.9205C29.4845 35.4631 28.225 34.3026 26.5877 33.4389C24.9684 32.5753 23.0432 32.1435 20.8121 32.1435H8.47834V49.848ZM8.47834 25.6392H19.6516C21.5228 25.6392 23.2051 25.2794 24.6985 24.5597C26.2099 23.84 27.4064 22.8324 28.288 21.5369C29.1876 20.2235 29.6374 18.6761 29.6374 16.8949C29.6374 14.6098 28.8368 12.6937 27.2354 11.1463C25.6341 9.59896 23.1781 8.82528 19.8675 8.82528H8.47834V25.6392ZM54.5344 57H45.6822L65.5728 1.72727H75.2077L95.0984 57H86.2461L70.6197 11.767H70.1879L54.5344 57ZM56.0188 35.3551H84.7347V42.3722H56.0188V35.3551ZM146.39 19.7017H137.97C137.646 17.9025 137.043 16.3191 136.162 14.9517C135.28 13.5843 134.2 12.4238 132.923 11.4702C131.645 10.5166 130.215 9.79687 128.632 9.31108C127.066 8.82528 125.402 8.58239 123.639 8.58239C120.454 8.58239 117.602 9.38305 115.083 10.9844C112.583 12.5857 110.603 14.9337 109.146 18.0284C107.707 21.1231 106.987 24.9015 106.987 29.3636C106.987 33.8617 107.707 37.6581 109.146 40.7528C110.603 43.8475 112.592 46.1866 115.11 47.7699C117.629 49.3532 120.463 50.1449 123.612 50.1449C125.357 50.1449 127.012 49.911 128.578 49.4432C130.161 48.9574 131.592 48.2467 132.869 47.3111C134.146 46.3755 135.226 45.233 136.108 43.8835C137.007 42.5161 137.628 40.9508 137.97 39.1875L146.39 39.2145C145.94 41.9313 145.068 44.4323 143.772 46.7173C142.495 48.9844 140.849 50.9455 138.833 52.6009C136.836 54.2382 134.551 55.5066 131.978 56.4062C129.405 57.3059 126.599 57.7557 123.558 57.7557C118.772 57.7557 114.508 56.6222 110.765 54.3551C107.023 52.0701 104.072 48.8045 101.913 44.5582C99.7719 40.312 98.7013 35.2472 98.7013 29.3636C98.7013 23.4621 99.7809 18.3973 101.94 14.169C104.099 9.92282 107.05 6.66619 110.792 4.39915C114.535 2.11411 118.79 0.971589 123.558 0.971589C126.491 0.971589 129.225 1.39441 131.762 2.24006C134.317 3.06771 136.611 4.29119 138.645 5.91051C140.678 7.51184 142.36 9.47301 143.691 11.794C145.023 14.0971 145.922 16.733 146.39 19.7017ZM156.369 57V1.72727H164.709V28.1222H165.384L188.567 1.72727H199.065L176.773 26.6108L199.146 57H189.107L171.24 32.3054L164.709 39.8082V57H156.369ZM241.498 19.1889C240.976 17.5516 240.275 16.0852 239.393 14.7898C238.529 13.4763 237.495 12.3608 236.289 11.4432C235.084 10.5076 233.708 9.79687 232.16 9.31108C230.631 8.82528 228.949 8.58239 227.113 8.58239C224.001 8.58239 221.194 9.38305 218.693 10.9844C216.192 12.5857 214.213 14.9337 212.755 18.0284C211.316 21.1051 210.596 24.8745 210.596 29.3366C210.596 33.8168 211.325 37.6042 212.782 40.6989C214.24 43.7936 216.237 46.1416 218.774 47.7429C221.311 49.3442 224.199 50.1449 227.437 50.1449C230.442 50.1449 233.06 49.5331 235.291 48.3097C237.54 47.0862 239.276 45.3589 240.5 43.1278C241.741 40.8788 242.362 38.2339 242.362 35.1932L244.521 35.598H228.706V28.7159H250.431V35.0043C250.431 39.6463 249.442 43.6766 247.463 47.0952C245.502 50.4957 242.785 53.1226 239.312 54.9759C235.858 56.8291 231.899 57.7557 227.437 57.7557C222.435 57.7557 218.045 56.6042 214.267 54.3011C210.506 51.9981 207.574 48.7325 205.468 44.5043C203.363 40.258 202.311 35.2202 202.311 29.3906C202.311 24.9825 202.922 21.0241 204.146 17.5156C205.369 14.0071 207.088 11.0294 209.301 8.58239C211.532 6.11742 214.15 4.23722 217.154 2.94176C220.177 1.62831 223.479 0.971589 227.059 0.971589C230.046 0.971589 232.826 1.4124 235.399 2.29403C237.99 3.17566 240.293 4.42613 242.308 6.04545C244.341 7.66477 246.023 9.58996 247.355 11.821C248.686 14.0341 249.586 16.4901 250.054 19.1889H241.498ZM261.018 57V1.72727H280.719C285.002 1.72727 288.555 2.46496 291.38 3.94034C294.223 5.41572 296.346 7.45786 297.749 10.0668C299.153 12.6577 299.854 15.6534 299.854 19.054C299.854 22.4366 299.144 25.4143 297.722 27.9872C296.319 30.5421 294.196 32.5303 291.353 33.9517C288.528 35.3731 284.975 36.0838 280.692 36.0838H265.768V28.9048H279.937C282.636 28.9048 284.831 28.518 286.522 27.7443C288.231 26.9706 289.482 25.8461 290.273 24.3707C291.065 22.8954 291.461 21.1231 291.461 19.054C291.461 16.9669 291.056 15.1586 290.246 13.6293C289.455 12.0999 288.204 10.9304 286.495 10.1207C284.804 9.29309 282.582 8.87926 279.829 8.87926H269.357V57H261.018ZM288.303 32.0625L301.96 57H292.46L279.073 32.0625H288.303ZM358.015 29.3636C358.015 35.2652 356.935 40.339 354.776 44.5852C352.617 48.8134 349.657 52.0701 345.897 54.3551C342.155 56.6222 337.899 57.7557 333.131 57.7557C328.345 57.7557 324.072 56.6222 320.312 54.3551C316.569 52.0701 313.619 48.8045 311.46 44.5582C309.3 40.312 308.221 35.2472 308.221 29.3636C308.221 23.4621 309.3 18.3973 311.46 14.169C313.619 9.92282 316.569 6.66619 320.312 4.39915C324.072 2.11411 328.345 0.971589 333.131 0.971589C337.899 0.971589 342.155 2.11411 345.897 4.39915C349.657 6.66619 352.617 9.92282 354.776 14.169C356.935 18.3973 358.015 23.4621 358.015 29.3636ZM349.756 29.3636C349.756 24.8655 349.028 21.0781 347.57 18.0014C346.131 14.9067 344.152 12.5677 341.633 10.9844C339.132 9.38305 336.298 8.58239 333.131 8.58239C329.947 8.58239 327.104 9.38305 324.603 10.9844C322.102 12.5677 320.123 14.9067 318.665 18.0014C317.226 21.0781 316.506 24.8655 316.506 29.3636C316.506 33.8617 317.226 37.6581 318.665 40.7528C320.123 43.8295 322.102 46.1686 324.603 47.7699C327.104 49.3532 329.947 50.1449 333.131 50.1449C336.298 50.1449 339.132 49.3532 341.633 47.7699C344.152 46.1686 346.131 43.8295 347.57 40.7528C349.028 37.6581 349.756 33.8617 349.756 29.3636ZM403.956 1.72727H412.323V38.081C412.323 41.9493 411.414 45.3769 409.597 48.3636C407.78 51.3324 405.225 53.6714 401.932 55.3807C398.64 57.072 394.78 57.9176 390.354 57.9176C385.946 57.9176 382.096 57.072 378.803 55.3807C375.51 53.6714 372.955 51.3324 371.138 48.3636C369.321 45.3769 368.412 41.9493 368.412 38.081V1.72727H376.752V37.4062C376.752 39.9072 377.301 42.1293 378.398 44.0724C379.514 46.0156 381.088 47.545 383.121 48.6605C385.154 49.758 387.565 50.3068 390.354 50.3068C393.161 50.3068 395.581 49.758 397.614 48.6605C399.665 47.545 401.23 46.0156 402.31 44.0724C403.408 42.1293 403.956 39.9072 403.956 37.4062V1.72727ZM469.06 1.72727V57H461.395L433.3 16.4631H432.787V57H424.447V1.72727H432.166L460.288 42.3182H460.801V1.72727H469.06ZM499.118 57H481.225V1.72727H499.685C505.101 1.72727 509.752 2.83381 513.638 5.04688C517.525 7.24195 520.502 10.3996 522.571 14.5199C524.659 18.6222 525.702 23.5431 525.702 29.2827C525.702 35.0402 524.65 39.9882 522.544 44.1264C520.457 48.2647 517.435 51.4493 513.476 53.6804C509.518 55.8935 504.732 57 499.118 57ZM489.564 49.7131H498.659C502.87 49.7131 506.369 48.9214 509.158 47.3381C511.947 45.7367 514.034 43.4247 515.419 40.402C516.805 37.3613 517.498 33.6548 517.498 29.2827C517.498 24.9465 516.805 21.267 515.419 18.2443C514.052 15.2216 512.01 12.9276 509.293 11.3622C506.576 9.79687 503.203 9.0142 499.172 9.0142H489.564V49.7131Z" fill="#FEFEFE"/>
</svg>
