<svg width="250" height="242" viewBox="0 0 250 242" fill="none" xmlns="http://www.w3.org/2000/svg">
<rect x="59.6318" width="200.092" height="186.999" rx="28" transform="rotate(18.5958 59.6318 0)" fill="#1F1F68"/>
<rect x="49.3892" y="61" width="154.459" height="119.725" rx="20" fill="#F9A949"/>
<path d="M156.358 152.625L106.249 153.75V140.344C108.53 139.344 110.952 138.203 113.514 136.922C116.077 135.609 118.624 134.203 121.155 132.703C123.686 131.203 126.108 129.609 128.42 127.922C130.764 126.203 132.811 124.438 134.561 122.625C136.342 120.812 137.764 118.953 138.827 117.047C139.889 115.141 140.42 113.234 140.42 111.328C140.42 110.578 140.17 109.906 139.67 109.312C139.17 108.688 138.467 108.156 137.561 107.719C136.655 107.25 135.561 106.891 134.28 106.641C133.03 106.391 131.655 106.266 130.155 106.266C126.999 106.266 123.295 106.875 119.045 108.094C114.827 109.281 110.311 111.266 105.499 114.047L103.249 98.4844C106.842 96.7656 110.295 95.4531 113.608 94.5469C116.952 93.6094 119.905 92.9219 122.467 92.4844C125.467 91.9844 128.28 91.7031 130.905 91.6406C134.217 91.6406 137.42 91.875 140.514 92.3438C143.608 92.8125 146.342 93.7031 148.717 95.0156C151.092 96.3281 152.967 98.1562 154.342 100.5C155.749 102.812 156.42 105.844 156.358 109.594C156.014 112.062 154.795 114.828 152.702 117.891C151.795 119.203 150.655 120.641 149.28 122.203C147.936 123.734 146.28 125.375 144.311 127.125C142.342 128.875 140.03 130.719 137.374 132.656C134.717 134.594 131.639 136.609 128.139 138.703L156.358 136.5V152.625Z" fill="#1F1F68"/>
</svg>
