<svg width="55" height="55" viewBox="0 0 55 55" fill="none" xmlns="http://www.w3.org/2000/svg">
<rect x="1.66663" y="1.5" width="52" height="52" rx="26" stroke="black" stroke-width="2"/>
<path fill-rule="evenodd" clip-rule="evenodd" d="M15.2117 25.4813C22.9854 21.3544 28.1817 18.687 30.7591 17.3785C38.1586 13.6543 39.6967 13 40.6944 13C40.9023 13 41.4011 13.0503 41.7337 13.3523C41.9831 13.6039 42.0663 13.9562 42.1078 14.2079C42.1494 14.4595 42.191 15.0131 42.1494 15.4661C41.7337 20.5492 40.0293 32.9801 39.1148 38.6672C38.7406 41.0829 37.9924 41.8882 37.2857 41.9888C35.7475 42.1398 34.542 40.7306 33.0455 39.5731C30.7175 37.711 29.3872 36.5534 27.1009 34.7416C24.4819 32.6278 26.1863 31.4703 27.6829 29.6082C28.057 29.1049 34.9161 21.6061 35.0408 20.9015C35.0408 20.8008 35.0824 20.4988 34.9161 20.3479C34.7498 20.1969 34.542 20.2472 34.3757 20.2975C34.1263 20.3479 30.3849 23.3675 23.1101 29.3062C22.0293 30.2121 21.0731 30.6147 20.2002 30.6147C19.244 30.6147 17.4149 29.9605 16.0431 29.4069C14.3803 28.7526 13.05 28.4003 13.1747 27.2931C13.2994 26.6892 13.9646 26.0852 15.2117 25.4813Z" fill="black"/>
</svg>
