<svg width="250" height="242" viewBox="0 0 250 242" fill="none" xmlns="http://www.w3.org/2000/svg">
<rect x="59.6318" width="200.092" height="186.999" rx="28" transform="rotate(18.5958 59.6318 0)" fill="#1F1F68"/>
<rect x="49.3892" y="61" width="154.459" height="119.725" rx="20" fill="#F9A949"/>
<path d="M142.53 126.422C144.467 126.891 146.374 127.562 148.249 128.438C150.155 129.312 151.858 130.391 153.358 131.672C154.858 132.953 156.061 134.469 156.967 136.219C157.905 137.938 158.374 139.922 158.374 142.172C158.374 144.484 157.795 146.438 156.639 148.031C155.483 149.625 153.967 150.953 152.092 152.016C150.249 153.078 148.155 153.906 145.811 154.5C143.499 155.094 141.155 155.531 138.78 155.812C136.405 156.125 134.124 156.312 131.936 156.375C129.749 156.438 127.874 156.469 126.311 156.469C124.53 156.469 122.686 156.359 120.78 156.141C118.874 155.953 116.967 155.672 115.061 155.297C113.155 154.922 111.28 154.469 109.436 153.938C107.624 153.406 105.92 152.812 104.327 152.156L105.967 136.969C107.717 137.844 109.624 138.625 111.686 139.312C113.78 139.969 115.92 140.531 118.108 141C120.295 141.438 122.483 141.781 124.67 142.031C126.889 142.25 128.999 142.359 130.999 142.359C131.592 142.359 132.358 142.359 133.295 142.359C134.233 142.328 135.217 142.266 136.249 142.172C137.311 142.047 138.358 141.875 139.389 141.656C140.452 141.406 141.405 141.078 142.249 140.672C143.092 140.234 143.78 139.703 144.311 139.078C144.842 138.422 145.108 137.625 145.108 136.688C145.108 135.625 144.702 134.703 143.889 133.922C143.108 133.109 142.092 132.422 140.842 131.859C139.624 131.266 138.249 130.781 136.717 130.406C135.217 130.031 133.733 129.734 132.264 129.516C130.827 129.297 129.499 129.141 128.28 129.047C127.061 128.922 126.124 128.844 125.467 128.812L125.139 124.406C125.983 124.375 127.061 124.297 128.374 124.172C129.686 124.016 131.077 123.797 132.545 123.516C134.014 123.234 135.483 122.875 136.952 122.438C138.452 121.969 139.795 121.391 140.983 120.703C142.17 120.016 143.139 119.203 143.889 118.266C144.639 117.297 145.014 116.172 145.014 114.891C145.014 113.203 144.577 111.844 143.702 110.812C142.858 109.75 141.78 108.938 140.467 108.375C139.155 107.781 137.733 107.391 136.202 107.203C134.702 107.016 133.295 106.922 131.983 106.922C129.889 106.922 127.733 107.078 125.514 107.391C123.295 107.703 121.077 108.125 118.858 108.656C116.639 109.188 114.467 109.844 112.342 110.625C110.249 111.375 108.28 112.188 106.436 113.062L104.139 95.4844C108.764 94.4219 113.436 93.6562 118.155 93.1875C122.905 92.6875 127.67 92.4375 132.452 92.4375C134.264 92.4375 136.155 92.5312 138.124 92.7188C140.124 92.9062 142.092 93.25 144.03 93.75C145.967 94.2188 147.811 94.8594 149.561 95.6719C151.311 96.4844 152.858 97.5156 154.202 98.7656C155.545 100.016 156.608 101.516 157.389 103.266C158.17 105.016 158.561 107.062 158.561 109.406C158.561 112 158.186 114.266 157.436 116.203C156.686 118.109 155.608 119.75 154.202 121.125C152.827 122.469 151.139 123.578 149.139 124.453C147.17 125.297 144.967 125.953 142.53 126.422Z" fill="#1F1F68"/>
</svg>
